<?xml version="1.0" standalone="no"?>
<!DOCTYPE svg PUBLIC "-//W3C//DTD SVG 20010904//EN"
 "http://www.w3.org/TR/2001/REC-SVG-20010904/DTD/svg10.dtd">
<svg version="1.0" xmlns="http://www.w3.org/2000/svg"
 width="230.000000pt" height="230.000000pt" viewBox="0 0 230.000000 230.000000"
 preserveAspectRatio="xMidYMid meet">

<g transform="translate(0.000000,230.000000) scale(0.100000,-0.100000)"
fill="#000000" stroke="none">
<path d="M367 2265 c-113 -31 -208 -100 -279 -203 -86 -125 -88 -145 -88 -912
0 -720 2 -750 59 -863 63 -127 179 -216 323 -247 38 -8 266 -10 813 -8 l760 3
76 36 c105 50 188 133 234 233 l35 75 0 770 c0 548 -3 778 -11 798 -50 123
-141 229 -239 276 -119 58 -107 57 -903 56 -570 -1 -743 -4 -780 -14z m1615
-112 c89 -42 151 -101 191 -182 l32 -66 3 -733 c3 -815 4 -799 -64 -888 -48
-62 -90 -98 -154 -131 l-55 -28 -775 0 -775 0 -64 35 c-81 44 -142 105 -178
178 l-28 57 -3 740 c-3 776 -3 773 41 855 28 52 102 124 155 151 96 47 102 48
877 46 l730 -2 67 -32z"/>
<path d="M641 1698 c-254 -636 -448 -1123 -455 -1146 -7 -22 -6 -23 50 -20
l58 3 99 253 100 252 236 -2 236 -3 12 -76 c45 -302 184 -504 415 -608 210
-95 454 -45 628 128 72 71 140 175 140 214 0 8 -23 24 -50 35 l-51 21 -10 -27
c-6 -15 -14 -36 -19 -47 -13 -34 -97 -139 -135 -168 -149 -117 -366 -129 -523
-28 -192 125 -315 407 -299 690 4 93 1 111 -33 196 -5 11 -11 29 -14 39 -4 11
-10 16 -15 10 -12 -12 -41 -145 -41 -186 0 -18 -3 -43 -6 -55 -6 -23 -7 -23
-208 -23 -112 0 -205 2 -208 5 -3 3 63 177 146 385 101 255 155 379 164 377 8
-1 25 -29 38 -62 13 -33 28 -69 34 -80 10 -20 121 -294 282 -695 49 -124 94
-234 99 -245 5 -11 35 -83 67 -160 l58 -140 48 -3 c59 -4 82 3 69 21 -6 6 -27
55 -47 107 -21 52 -44 110 -52 128 -33 76 -49 114 -183 444 -78 191 -141 350
-141 353 0 2 -11 28 -24 57 -13 29 -54 128 -91 221 l-68 167 -86 0 -86 0 -134
-332z"/>
<path d="M1562 1999 c-121 -18 -220 -69 -308 -156 -45 -45 -104 -125 -104
-140 0 -4 14 -41 32 -80 l31 -73 43 90 c72 151 181 238 326 261 82 13 172 -1
247 -38 71 -34 170 -133 202 -200 13 -29 30 -52 37 -53 21 0 92 39 92 52 0 6
-15 39 -34 72 -41 74 -143 174 -212 209 -104 53 -235 74 -352 56z"/>
</g>
</svg>
